<svg xmlns="http://www.w3.org/2000/svg" xmlns:xlink="http://www.w3.org/1999/xlink" viewBox="0 0 512 512" width="512" height="512" preserveAspectRatio="xMidYMid slice" style="width: 100%; height: 100%; transform: translate3d(0px, 0px, 0px); content-visibility: visible;"><defs><clipPath id="__lottie_element_36"><rect width="512" height="512" x="0" y="0"></rect></clipPath></defs><g clip-path="url(#__lottie_element_36)"><g transform="matrix(1,0,0,1,256,256)" opacity="1" style="display: block;"><g opacity="1" transform="matrix(19.692310333251953,0,0,19.692310333251953,0,0)"><path fill="rgb(56,162,32)" fill-opacity="1" d=" M1.1749999523162842,9.307999610900879 C1.1749999523162842,7.2769999504089355 1.156999945640564,4.8460001945495605 1.1349999904632568,3.9070000648498535 C1.1349999904632568,3.9070000648498535 1.093999981880188,2.1989998817443848 1.093999981880188,2.1989998817443848 C1.093999981880188,2.1989998817443848 5.664000034332275,2.2149999141693115 5.664000034332275,2.2149999141693115 C5.664000034332275,2.2149999141693115 10.234999656677246,2.2309999465942383 10.234999656677246,2.2309999465942383 C10.234999656677246,2.2309999465942383 10.251999855041504,5.922999858856201 10.251999855041504,5.922999858856201 C10.270999908447266,10.121999740600586 10.239999771118164,10.694000244140625 9.956000328063965,11.302000045776367 C9.706000328063965,11.836999893188477 9.430000305175781,12.15999984741211 8.96399974822998,12.46399974822998 C8.270999908447266,12.916999816894531 8.20300006866455,12.925000190734863 4.4770002365112305,12.96500015258789 C4.4770002365112305,12.96500015258789 1.1749999523162842,13 1.1749999523162842,13 C1.1749999523162842,13 1.1749999523162842,9.307999610900879 1.1749999523162842,9.307999610900879z M-10.24899959564209,2.2009999752044678 C-10.24899959564209,2.2009999752044678 -6.978000164031982,2.184999942779541 -6.978000164031982,2.184999942779541 C-5.178999900817871,2.1760001182556152 -3.13700008392334,2.1610000133514404 -2.440999984741211,2.1530001163482666 C-2.440999984741211,2.1530001163482666 -1.1749999523162842,2.138000011444092 -1.1749999523162842,2.138000011444092 C-1.1749999523162842,2.138000011444092 -1.1369999647140503,2.36899995803833 -1.1369999647140503,2.36899995803833 C-1.1160000562667847,2.496000051498413 -1.0980000495910645,4.934999942779541 -1.0980000495910645,7.789000034332275 C-1.0980000495910645,7.789000034332275 -1.097000002861023,12.977999687194824 -1.097000002861023,12.977999687194824 C-1.097000002861023,12.977999687194824 -4.428999900817871,12.951000213623047 -4.428999900817871,12.951000213623047 C-7.949999809265137,12.92300033569336 -8.114999771118164,12.91100025177002 -8.704000473022461,12.623000144958496 C-9.378999710083008,12.293000221252441 -10.005999565124512,11.427000045776367 -10.180999755859375,10.581999778747559 C-10.22599983215332,10.36400032043457 -10.24899959564209,8.92199993133545 -10.24899959564209,6.228000164031982 C-10.24899959564209,6.228000164031982 -10.24899959564209,2.2009999752044678 -10.24899959564209,2.2009999752044678z M1.9500000476837158,-9.925000190734863 C1.3300000429153442,-9.27400016784668 1.180999994277954,-8.736000061035156 1.1770000457763672,-7.144999980926514 C1.1749999523162842,-6.434999942779541 1.190999984741211,-6.300000190734863 1.2730000019073486,-6.26800012588501 C1.3259999752044678,-6.247000217437744 1.9149999618530273,-6.230999946594238 2.5829999446868896,-6.230999946594238 C3.628999948501587,-6.230999946594238 3.8450000286102295,-6.248000144958496 4.146999835968018,-6.3520002365112305 C4.703999996185303,-6.544000148773193 5.099999904632568,-6.788000106811523 5.388999938964844,-7.119999885559082 C5.761000156402588,-7.546000003814697 5.873000144958496,-7.9039998054504395 5.869999885559082,-8.661999702453613 C5.868000030517578,-9.383000373840332 5.757999897003174,-9.696999549865723 5.364999771118164,-10.10200023651123 C5.070000171661377,-10.406000137329102 4.7210001945495605,-10.569999694824219 4.184999942779541,-10.656999588012695 C3.746999979019165,-10.727999687194824 3.74399995803833,-10.729000091552734 3.2780001163482666,-10.66100025177002 C2.796999931335449,-10.590999603271484 2.3450000286102295,-10.34000015258789 1.9500000476837158,-9.925000190734863z M-5.796000003814697,-9.41100025177002 C-6.038000106811523,-8.593000411987305 -5.8460001945495605,-7.632999897003174 -5.323999881744385,-7.060999870300293 C-4.704999923706055,-6.382999897003174 -4.014999866485596,-6.206999778747559 -2.1110000610351562,-6.24399995803833 C-2.1110000610351562,-6.24399995803833 -1.1890000104904175,-6.26200008392334 -1.1890000104904175,-6.26200008392334 C-1.1890000104904175,-6.26200008392334 -1.2059999704360962,-7.216000080108643 -1.2059999704360962,-7.216000080108643 C-1.2259999513626099,-8.366000175476074 -1.3020000457763672,-8.984999656677246 -1.4620000123977661,-9.300000190734863 C-1.6390000581741333,-9.64799976348877 -2.4489998817443848,-10.454999923706055 -2.5350000858306885,-10.369000434875488 C-2.555000066757202,-10.348999977111816 -2.571000099182129,-10.364999771118164 -2.571000099182129,-10.404000282287598 C-2.571000099182129,-10.579999923706055 -3.7009999752044678,-10.753999710083008 -4.269000053405762,-10.664999961853027 C-4.947000026702881,-10.559000015258789 -5.61899995803833,-10.006999969482422 -5.796000003814697,-9.41100025177002z M-8.190999984741211,-9.800000190734863 C-7.756999969482422,-11.475000381469727 -6.390999794006348,-12.729000091552734 -4.751999855041504,-12.956000328063965 C-4.311999797821045,-13.017000198364258 -3.303999900817871,-12.991000175476074 -2.9089999198913574,-12.907999992370605 C-2.36299991607666,-12.793000221252441 -1.5859999656677246,-12.409000396728516 -1.184999942779541,-12.053999900817871 C-0.8360000252723694,-11.746000289916992 -0.2980000078678131,-11.001999855041504 -0.1420000046491623,-10.611000061035156 C-0.0860000029206276,-10.470000267028809 -0.02199999988079071,-10.355999946594238 0,-10.357999801635742 C0.02199999988079071,-10.359999656677246 0.15000000596046448,-10.58899974822998 0.2849999964237213,-10.866000175476074 C0.6169999837875366,-11.54699993133545 1.3279999494552612,-12.272000312805176 1.9830000400543213,-12.595999717712402 C2.993000030517578,-13.095999717712402 4.553999900817871,-13.13700008392334 5.734000205993652,-12.694000244140625 C6.752999782562256,-12.312000274658203 7.711999893188477,-11.279000282287598 8.07800006866455,-10.168999671936035 C8.48900032043457,-8.92199993133545 8.293000221252441,-7.616000175476074 7.539000034332275,-6.570000171661377 C7.343999862670898,-6.300000190734863 7.330999851226807,-6.257999897003174 7.425000190734863,-6.223999977111816 C7.51200008392334,-6.191999912261963 7.502999782562256,-6.181000232696533 7.379000186920166,-6.1620001792907715 C7.295000076293945,-6.14900016784668 7.9019999504089355,-6.138999938964844 8.729999542236328,-6.138999938964844 C10.442999839782715,-6.138999938964844 10.699999809265137,-6.0980000495910645 11.152000427246094,-5.750999927520752 C11.567000389099121,-5.433000087738037 11.786999702453613,-5.098999977111816 11.866000175476074,-4.669000148773193 C11.956999778747559,-4.172999858856201 11.916000366210938,-0.5389999747276306 11.815999984741211,-0.30799999833106995 C11.690999984741211,-0.01899999938905239 11.258999824523926,0.39500001072883606 10.923999786376953,0.546999990940094 C10.923999786376953,0.546999990940094 10.602999687194824,0.6919999718666077 10.602999687194824,0.6919999718666077 C10.602999687194824,0.6919999718666077 5.886000156402588,0.6919999718666077 5.886000156402588,0.6919999718666077 C5.886000156402588,0.6919999718666077 1.1699999570846558,0.6919999718666077 1.1699999570846558,0.6919999718666077 C1.1699999570846558,0.6919999718666077 1.1710000038146973,-2.677000045776367 1.1710000038146973,-2.677000045776367 C1.1710000038146973,-2.677000045776367 1.1720000505447388,-6.046000003814697 1.1720000505447388,-6.046000003814697 C1.1720000505447388,-6.046000003814697 0.02199999988079071,-6.046000003814697 0.02199999988079071,-6.046000003814697 C0.02199999988079071,-6.046000003814697 -1.128000020980835,-6.046000003814697 -1.128000020980835,-6.046000003814697 C-1.128000020980835,-6.046000003814697 -1.1069999933242798,-2.6619999408721924 -1.1069999933242798,-2.6619999408721924 C-1.1069999933242798,-2.6619999408721924 -1.0859999656677246,0.7229999899864197 -1.0859999656677246,0.7229999899864197 C-1.0859999656677246,0.7229999899864197 -5.5289998054504395,0.722000002861023 -5.5289998054504395,0.722000002861023 C-8.107000350952148,0.7210000157356262 -10.147000312805176,0.6949999928474426 -10.388999938964844,0.6600000262260437 C-10.619000434875488,0.6269999742507935 -10.90999984741211,0.546999990940094 -11.036999702453613,0.4819999933242798 C-11.369999885559082,0.31200000643730164 -11.763999938964844,-0.1420000046491623 -11.847000122070312,-0.4519999921321869 C-11.944000244140625,-0.8140000104904175 -11.937999725341797,-4.48199987411499 -11.84000015258789,-4.810999870300293 C-11.652000427246094,-5.439000129699707 -10.979000091552734,-5.991000175476074 -10.295000076293945,-6.079999923706055 C-10.295000076293945,-6.079999923706055 -9.91100025177002,-6.130000114440918 -9.91100025177002,-6.130000114440918 C-9.91100025177002,-6.130000114440918 -10.156000137329102,-6.172999858856201 -10.156000137329102,-6.172999858856201 C-10.291000366210938,-6.197000026702881 -9.706999778747559,-6.211999893188477 -8.857999801635742,-6.208000183105469 C-8.857999801635742,-6.208000183105469 -7.314000129699707,-6.199999809265137 -7.314000129699707,-6.199999809265137 C-7.314000129699707,-6.199999809265137 -7.434000015258789,-6.415999889373779 -7.434000015258789,-6.415999889373779 C-7.5,-6.533999919891357 -7.644000053405762,-6.775000095367432 -7.755000114440918,-6.949999809265137 C-8.229000091552734,-7.701000213623047 -8.416999816894531,-8.930000305175781 -8.190999984741211,-9.800000190734863z"></path><g opacity="1" transform="matrix(1,0,0,1,0,0)"></g><g opacity="1" transform="matrix(1,0,0,1,0,0)"></g><g opacity="1" transform="matrix(1,0,0,1,0,0)"></g><g opacity="1" transform="matrix(1,0,0,1,0,0)"></g><g opacity="1" transform="matrix(1,0,0,1,0,0)"></g></g></g></g></svg>